PathFileType	4	(X/Y/Z)	2014001\dynamic\2014001_C1_04.trc
DataRate	CameraRate	NumFrames	NumMarkers	Units	OrigDataRate	OrigDataStartFrame	OrigNumFrames
100.000000	100.000000	4	52	mm	100.000000	426	569
Frame#	Time	L_IAS			L_IPS			R_IPS			R_IAS			L_FTC			L_FLE			L_FME			L_FAX			L_TTC			L_FAL			L_TAM			L_FCC			L_FM1			L_FM2			L_FM5			R_FTC			R_FLE			R_FME			R_FAX			R_TTC			R_FAL			R_TAM			R_FCC			R_FM1			R_FM2			R_FM5			CV7			TV10			SXS			SJN			L_SIA			L_SRS			L_SAA			L_SAE			L_HLE			L_HME			L_UOA			L_RSP			L_UHE			L_HM2			L_HM5			R_SIA			R_SRS			R_SAA			R_SAE			R_HLE			R_HME			R_UOA			R_RSP			R_UHE			R_HM2			R_HM5			
		X1	Y1	Z1	X2	Y2	Z2	X3	Y3	Z3	X4	Y4	Z4	X5	Y5	Z5	X6	Y6	Z6	X7	Y7	Z7	X8	Y8	Z8	X9	Y9	Z9	X10	Y10	Z10	X11	Y11	Z11	X12	Y12	Z12	X13	Y13	Z13	X14	Y14	Z14	X15	Y15	Z15	X16	Y16	Z16	X17	Y17	Z17	X18	Y18	Z18	X19	Y19	Z19	X20	Y20	Z20	X21	Y21	Z21	X22	Y22	Z22	X23	Y23	Z23	X24	Y24	Z24	X25	Y25	Z25	X26	Y26	Z26	X27	Y27	Z27	X28	Y28	Z28	X29	Y29	Z29	X30	Y30	Z30	X31	Y31	Z31	X32	Y32	Z32	X33	Y33	Z33	X34	Y34	Z34	X35	Y35	Z35	X36	Y36	Z36	X37	Y37	Z37	X38	Y38	Z38	X39	Y39	Z39	X40	Y40	Z40	X41	Y41	Z41	X42	Y42	Z42	X43	Y43	Z43	X44	Y44	Z44	X45	Y45	Z45	X46	Y46	Z46	X47	Y47	Z47	X48	Y48	Z48	X49	Y49	Z49	X50	Y50	Z50	X51	Y51	Z51	X52	Y52	Z52	

427	4.26	373.9352416992189	880.6506958007817	1083.702880859375	312.8297729492189	920.0921020507817	899.527954101563	223.8078460693361	918.2687988281255	888.7963867187505	132.9156341552735	876.5863647460942	1060.341430664063	436.4309387207034	797.6264038085942	1014.834594726563	394.6056823730471	443.7686767578127	1063.04296875	277.2587280273439	440.7991333007815	1073.07275390625	398.1017150878909	379.7515869140626	1052.0869140625	344.1120605468751	369.7286071777345	1111.058959960938	348.7446594238282	61.56444168090823	1057.063110351563	259.723358154297	74.61664581298831	1076.4013671875	301.7106933593751	20.63303947448731	1014.82958984375	280.1152648925782	25.47497749328615	1194.798950195313	340.9785156250001	39.47360229492189	1202.256591796875	384.7447509765627	27.6235752105713	1147.480224609375	86.41609191894534	793.694946289063	945.6885375976567	99.96266174316412	459.4579162597659	865.908569335938	213.4781799316407	431.1444396972659	891.2973632812505	95.41226959228518	408.9159240722659	818.0576782226567	136.4503936767579	369.1146545410157	874.984252929688	135.5203552246094	155.8271179199219	626.3035278320315	215.8416137695314	146.8730926513672	671.9219970703127	195.2688751220704	146.4566650390626	576.2448730468752	215.7897186279298	30.96390914916994	701.702331542969	154.1758880615235	36.80715942382814	711.552917480469	108.7445526123047	45.38642883300783	662.5814208984377	268.1521606445314	1382.062622070313	920.2598266601567	268.9127807617189	1146.2109375	859.6525268554692	274.2609252929689	1154.788208007813	1091.5107421875	273.5871582031251	1316.842407226563	1046.560424804688	360.9851379394532	1184.726440429688	853.5776367187505	354.7772521972657	1317.1826171875	872.0278930664067	464.006042480469	1314.892211914063	943.485717773438	450.500427246094	1326.177490234375	984.6574096679692	526.1863403320315	1042.341918945313	943.293090820313	449.1248779296877	1009.249694824219	925.5409545898442	497.9102172851565	1006.81005859375	913.3931274414067	494.7861328125002	823.6520385742192	1062.82177734375	557.4467773437502	813.9725952148442	1011.299743652344	505.1963806152346	745.5043945312502	1101.356201171875	559.118591308594	735.7568969726565	1014.265686035157	151.5880126953126	1192.025756835938	856.051879882813	176.4584197998047	1316.22216796875	881.4500122070317	76.13851165771487	1315.158447265625	964.2963867187505	90.69702148437503	1318.958984375	1012.5859375	12.43682289123536	1016.454528808594	973.654663085938	86.70918273925784	999.064086914063	943.0383911132817	40.78343200683595	991.2316284179692	942.735473632813	52.02339172363284	816.2741699218755	1084.784057617188	-14.38246726989747	810.339965820313	1037.472290039063	37.055477142334	732.7043457031252	1124.825073242188	-16.81465530395509	730.8692016601565	1036.356079101563	
428	4.27	375.2427673339845	880.7724609375005	1087.775756835938	314.2911987304689	920.574829101563	903.6651000976567	225.2887573242189	918.7770385742192	892.9739379882817	134.2610168457032	877.0780639648442	1064.369750976563	437.6431884765627	797.7764282226567	1018.776733398438	395.2924804687502	443.6910705566409	1064.856201171875	277.8479919433595	440.7474670410159	1074.753295898438	398.705017089844	379.7007751464845	1053.590942382813	344.659393310547	369.5164489746095	1112.456787109375	348.7271118164064	61.51446914672854	1057.149780273438	259.6982727050782	74.63508605957034	1076.401245117188	301.7188110351564	20.65919494628907	1014.835083007813	280.1054992675782	25.43132400512697	1194.79296875	340.9307250976564	39.50117492675783	1202.302734375	384.7011718750002	27.66233634948732	1147.505737304688	87.68231201171878	794.2790527343755	949.4039916992192	99.97640991210943	460.193786621094	869.6419067382817	213.2215728759767	431.3359985351565	895.5910644531255	95.27898406982425	410.0525512695315	821.6321411132817	136.0217590332032	369.6047668457032	878.5488891601567	135.3834381103516	157.6980895996094	628.7069091796877	215.5079193115236	148.1239318847657	674.5979003906252	195.3474731445314	148.7933502197266	578.9483642578127	215.7195434570314	31.7202548980713	702.2884521484377	153.9207763671876	37.14254760742189	712.1860961914065	108.6102905273438	46.45830535888673	663.4993286132815	269.3856811523439	1382.5380859375	924.688842773438	270.3959960937501	1146.7353515625	863.9109497070317	275.6231994628907	1155.199829101563	1095.890258789063	274.8177185058595	1317.282104492188	1050.991943359375	362.5420837402345	1185.320556640625	858.0646972656255	356.1524963378907	1317.757080078125	876.5034790039067	465.341735839844	1315.585815429688	948.1553344726567	451.709411621094	1326.847778320313	989.2954101562505	527.9349365234377	1043.07373046875	948.6145629882817	450.9777526855471	1009.900085449219	930.505737304688	499.8565673828127	1007.430053710938	918.6547241210942	496.393005371094	824.674194335938	1068.871215820313	559.210632324219	814.941772460938	1017.50634765625	506.7237548828127	746.709411621094	1107.590209960938	560.9819335937502	736.7456665039065	1020.753601074219	152.9017486572266	1192.4306640625	860.492553710938	177.7334289550782	1316.637329101563	885.845336914063	77.42566680908206	1315.484741210938	968.6886596679692	92.0105895996094	1319.310791015625	1016.982238769532	13.78492546081544	1016.619018554688	978.9848632812505	88.00764465332034	999.1261596679692	948.3818969726567	42.10353088378908	991.1201782226567	948.2062988281255	54.19239044189456	817.7167968750005	1092.035400390625	-12.27417278289796	810.9650268554692	1044.969970703125	39.56603622436525	734.5051269531252	1133.074829101563	-14.41043567657471	731.5297851562502	1044.669311523438	
429	4.28	376.519989013672	880.8688964843755	1091.797241210938	315.7210998535157	921.0468139648442	907.734741210938	226.7351837158204	919.274536132813	897.110717773438	135.5785522460938	877.5813598632817	1068.380493164063	438.813659667969	797.8998413085942	1022.654174804688	395.9619140625002	443.6078186035159	1066.61865234375	278.4374084472657	440.7017517089846	1076.387329101563	399.2919006347659	379.646697998047	1055.047119140625	345.1932373046876	369.3011779785157	1113.813720703125	348.7144165039064	61.46904754638675	1057.2314453125	259.678680419922	74.66208648681643	1076.407104492188	301.7267456054689	20.68687248229981	1014.837829589844	280.096893310547	25.40287017822267	1194.791259765625	340.8934631347657	39.52588272094728	1202.345458984375	384.6675720214846	27.69180870056154	1147.527465820313	88.91630554199222	794.8527221679692	953.0708007812505	99.99536895751959	460.887390136719	873.3859863281255	212.9993438720704	431.5115966796877	899.829223632813	95.16316986083987	411.1375122070315	825.2244262695317	135.6269531250001	370.072235107422	882.1184082031255	135.2552642822266	159.5340576171876	631.1298828125002	215.200164794922	149.3690338134766	677.2686767578127	195.4369659423829	151.110824584961	581.6530761718752	215.6560058593751	32.49238586425783	702.9102172851565	153.6795349121094	37.52065277099611	712.8638305664065	108.4546737670899	47.59443664550783	664.4849853515627	270.5963134765626	1383.002197265625	929.069702148438	271.8669738769532	1147.247436523438	868.1233520507817	276.9722290039064	1155.60009765625	1100.215576171875	276.0311279296876	1317.709838867188	1055.372436523438	364.0819396972657	1185.909423828125	862.4961547851567	357.5092163085939	1318.327758789063	880.911010742188	466.6538696289065	1316.284057617188	952.7723999023442	452.9014282226565	1327.523193359375	993.8769531250005	529.6555175781252	1043.798095703125	953.8969116210942	452.7919921875002	1010.562683105469	935.4128417968755	501.7609863281252	1008.050354003907	923.8742065429692	497.987976074219	825.6856079101567	1074.837768554688	560.9482421875002	815.9104003906255	1023.634643554688	508.227722167969	747.895446777344	1113.733032226563	562.818054199219	737.735290527344	1027.145629882813	154.2011871337891	1192.828247070313	864.8786010742192	178.9918518066407	1317.037109375	890.1909179687505	78.69554138183597	1315.798217773438	973.0319213867192	93.310173034668	1319.648193359375	1021.327392578125	15.10813426971436	1016.778198242188	984.244506835938	89.28091430664065	999.181518554688	953.655395507813	43.39687728881837	990.9977416992192	953.613403320313	56.38371658325198	819.2229614257817	1099.26123046875	-10.16221618652344	811.6152954101567	1052.434936523438	42.10070037841798	736.3682250976565	1141.288818359375	-11.97752380371094	732.2227783203127	1052.98388671875	
430	4.29	377.7646789550782	880.9439086914067	1095.770751953125	317.1175231933595	921.5067749023442	911.731567382813	228.1427764892579	919.7617187500005	901.1855468750005	136.8614654541016	878.0888061523442	1072.365600585938	439.9410705566409	797.9972534179692	1026.4609375	396.6108703613284	443.519226074219	1068.339965820313	279.0304565429689	440.6683044433596	1077.987915039063	399.8590393066409	379.5888671875001	1056.465576171875	345.7084960937501	369.0803833007814	1115.137084960938	348.7052307128907	61.42796325683597	1057.309448242188	259.6633911132814	74.69329833984378	1076.418212890625	301.7336730957032	20.7152271270752	1014.83837890625	280.0877990722657	25.38623428344728	1194.794311523438	340.8648376464845	39.54633712768556	1202.38525390625	384.6421508789065	27.71351432800294	1147.545532226563	90.12175750732425	795.4072875976567	956.6921997070317	100.029899597168	461.524108886719	877.1593627929692	212.8235626220704	431.6641235351565	904.0238647460942	95.08347320556643	412.1517333984377	828.847534179688	135.2812042236329	370.5046386718751	885.7070312500005	135.1426391601563	161.3330230712891	633.5786743164065	214.9263458251954	150.6074523925782	679.9306640625002	195.5393371582032	153.408432006836	584.3586425781252	215.6040496826173	33.27541732788087	703.5687255859377	153.4511718750001	37.93540191650392	713.5841064453127	108.2850189208985	48.79492187500003	665.5385742187502	271.786590576172	1383.452880859375	933.4006347656255	273.3286437988282	1147.742797851563	872.2931518554692	278.3064270019532	1155.989135742188	1104.487670898438	277.2284545898439	1318.124755859375	1059.700805664063	365.6070251464845	1186.489013671875	866.8728637695317	358.8487243652345	1318.890625	885.2502441406255	467.9426879882815	1316.984252929688	957.3330688476567	454.0784912109377	1328.201049804688	998.3989868164067	531.347839355469	1044.513061523438	959.1230468750005	454.5658264160159	1011.230895996094	940.2597045898442	503.6204528808596	1008.665649414063	929.0391235351567	499.5658264160159	826.6935424804692	1080.713500976563	562.656677246094	816.8769531250005	1029.676879882813	509.7093200683596	749.070007324219	1119.787231445313	564.6208496093752	738.723571777344	1033.440185546875	155.4903869628907	1193.215454101563	869.207153320313	180.237045288086	1317.419189453125	894.4831542968755	79.94902038574222	1316.09765625	977.321411132813	94.59659576416018	1319.970458984375	1025.616333007813	16.41147994995118	1016.932189941407	989.428100585938	90.536979675293	999.230346679688	958.8579101562505	44.6709442138672	990.8654174804692	958.9528808593755	58.59378051757815	820.7797241210942	1106.455322265625	-8.046599388122562	812.2916870117192	1059.845947265625	44.64967346191408	738.2872314453127	1149.446166992188	-9.520460128784183	732.9488525390627	1061.27490234375	
